<svg width="407.61" height="53.621" viewBox="0 0 407.61 53.621" xmlns="http://www.w3.org/2000/svg">
    <g id="svgGroup" stroke-linecap="round" fill-rule="evenodd" font-size="9pt" stroke="#000000" stroke-width=".25mm" fill="#ffffff" style="stroke:#000000;stroke-width:.25mm;fill:#ffffff">
        <path d="M 217.63 10.57 L 217.63 25.13 L 235.13 25.13 L 235.13 31.22 L 217.63 31.22 L 217.63 46.55 L 238.98 46.55 L 238.98 52.71 L 209.51 52.71 L 209.51 4.41 L 238.56 4.41 L 237.65 10.57 L 217.63 10.57 Z M 47.67 15.75 L 47.67 41.58 A 12.659 12.659 0 0 0 47.77 43.229 Q 48.005 45.015 48.797 46.035 A 3.556 3.556 0 0 0 48.965 46.235 A 4.048 4.048 0 0 0 50.758 47.365 Q 51.423 47.582 52.235 47.645 A 8.903 8.903 0 0 0 52.92 47.67 A 8.805 8.805 0 0 0 57.048 46.623 A 10.871 10.871 0 0 0 57.785 46.2 Q 60.13 44.73 61.53 42.49 L 61.53 15.75 L 69.37 15.75 L 69.37 52.71 L 62.58 52.71 L 62.09 47.95 Q 60.13 50.68 56.98 52.15 Q 53.83 53.62 50.47 53.62 A 15.665 15.665 0 0 1 47.407 53.34 Q 44.319 52.724 42.49 50.75 Q 40.187 48.265 39.878 43.942 A 19.406 19.406 0 0 1 39.83 42.56 L 39.83 15.75 L 47.67 15.75 Z M 407.61 15.75 L 406.28 29.4 L 400.68 29.4 L 400.68 21.84 A 9.032 9.032 0 0 0 394.353 24.555 A 12.021 12.021 0 0 0 393.995 24.92 Q 391.16 27.93 389.48 33.39 L 389.48 47.11 L 396.9 47.11 L 396.9 52.71 L 376.18 52.71 L 376.18 47.11 L 381.64 47.11 L 381.64 21.35 L 376.18 21.35 L 376.18 15.75 L 387.59 15.75 L 388.99 24.29 Q 391.16 19.53 394.275 17.185 A 11.481 11.481 0 0 1 399.237 15.075 A 15.722 15.722 0 0 1 402.01 14.84 Q 404.88 14.84 407.61 15.75 Z M 313.53 0 L 321.37 0.91 L 321.37 52.71 L 314.44 52.71 L 313.88 48.16 Q 312.06 50.82 309.4 52.22 A 12.282 12.282 0 0 1 304.119 53.608 A 14.463 14.463 0 0 1 303.52 53.62 A 14.688 14.688 0 0 1 299.161 53.008 A 11.139 11.139 0 0 1 293.09 48.44 Q 289.59 43.26 289.59 34.23 A 30.737 30.737 0 0 1 290.029 28.914 A 23.483 23.483 0 0 1 291.375 24.15 A 18.044 18.044 0 0 1 293.457 20.329 A 14.378 14.378 0 0 1 296.45 17.255 Q 299.74 14.77 304.22 14.77 Q 309.89 14.77 313.53 18.83 L 313.53 0 Z M 266.07 0.91 L 266.07 42.63 A 5.582 5.582 0 0 0 266.398 44.627 Q 267.426 47.32 271.67 47.32 A 13.977 13.977 0 0 0 275.094 46.876 A 18.339 18.339 0 0 0 277.55 46.06 L 279.51 51.52 Q 275.66 53.62 269.99 53.62 A 15.823 15.823 0 0 1 266.473 53.252 Q 263.389 52.549 261.345 50.505 A 10.3 10.3 0 0 1 258.602 45.425 A 15.478 15.478 0 0 1 258.23 41.93 L 258.23 6.65 L 247.1 6.65 L 247.1 0.91 L 266.07 0.91 Z M 150.15 44.31 L 153.51 49.07 A 18.294 18.294 0 0 1 148.701 51.949 A 21.508 21.508 0 0 1 147.42 52.43 Q 143.92 53.62 140.07 53.62 Q 131.6 53.62 126.91 48.335 A 17.995 17.995 0 0 1 122.883 40.363 Q 122.241 37.634 122.221 34.437 A 32.932 32.932 0 0 1 122.22 34.23 A 25.939 25.939 0 0 1 122.862 28.352 A 21.578 21.578 0 0 1 124.25 24.255 A 16.648 16.648 0 0 1 127.799 19.151 A 15.683 15.683 0 0 1 130.13 17.29 Q 133.98 14.77 139.09 14.77 A 17.635 17.635 0 0 1 144.319 15.508 A 13.78 13.78 0 0 1 150.745 19.705 A 16.52 16.52 0 0 1 154.166 26.202 Q 155.05 29.349 155.05 33.25 Q 155.05 34.761 154.941 35.91 A 15.569 15.569 0 0 1 154.84 36.75 L 130.34 36.75 Q 130.69 42.14 133.455 44.835 A 9.403 9.403 0 0 0 139.637 47.506 A 12.486 12.486 0 0 0 140.42 47.53 Q 143.01 47.53 145.355 46.725 A 19.262 19.262 0 0 0 148.026 45.565 A 24.852 24.852 0 0 0 150.15 44.31 Z M 360.15 44.31 L 363.51 49.07 A 18.294 18.294 0 0 1 358.701 51.949 A 21.508 21.508 0 0 1 357.42 52.43 Q 353.92 53.62 350.07 53.62 Q 341.6 53.62 336.91 48.335 A 17.995 17.995 0 0 1 332.883 40.363 Q 332.241 37.634 332.221 34.437 A 32.932 32.932 0 0 1 332.22 34.23 A 25.939 25.939 0 0 1 332.862 28.352 A 21.578 21.578 0 0 1 334.25 24.255 A 16.648 16.648 0 0 1 337.799 19.151 A 15.683 15.683 0 0 1 340.13 17.29 Q 343.98 14.77 349.09 14.77 A 17.635 17.635 0 0 1 354.319 15.508 A 13.78 13.78 0 0 1 360.745 19.705 A 16.52 16.52 0 0 1 364.166 26.202 Q 365.05 29.349 365.05 33.25 Q 365.05 34.761 364.941 35.91 A 15.569 15.569 0 0 1 364.84 36.75 L 340.34 36.75 Q 340.69 42.14 343.455 44.835 A 9.403 9.403 0 0 0 349.637 47.506 A 12.486 12.486 0 0 0 350.42 47.53 Q 353.01 47.53 355.355 46.725 A 19.262 19.262 0 0 0 358.026 45.565 A 24.852 24.852 0 0 0 360.15 44.31 Z M 0 52.71 L 0 4.41 L 8.05 4.41 L 8.05 45.92 L 29.75 45.92 L 28.84 52.71 L 0 52.71 Z M 89.88 0 L 89.88 52.71 L 82.04 52.71 L 82.04 0.91 L 89.88 0 Z M 114.38 15.75 L 99.47 32.27 L 115.92 52.71 L 106.33 52.71 L 90.44 32.48 L 105.28 15.75 L 114.38 15.75 Z M 313.53 42.35 L 313.53 24.92 A 11.035 11.035 0 0 0 311.401 22.59 A 7.992 7.992 0 0 0 306.25 20.79 A 7.845 7.845 0 0 0 303.424 21.277 Q 301.373 22.063 300.055 24.115 Q 297.92 27.44 297.92 34.23 A 35.055 35.055 0 0 0 298.191 38.797 Q 298.84 43.709 301.047 45.901 A 6.212 6.212 0 0 0 305.62 47.67 Q 309.798 47.67 312.888 43.32 A 18.244 18.244 0 0 0 313.53 42.35 Z M 130.27 31.43 L 147.42 31.43 Q 147.28 26.18 145.18 23.38 A 6.824 6.824 0 0 0 140.227 20.635 A 9.981 9.981 0 0 0 139.16 20.58 A 8.504 8.504 0 0 0 136.022 21.141 A 7.736 7.736 0 0 0 133 23.31 Q 131.2 25.374 130.561 28.959 A 22.354 22.354 0 0 0 130.27 31.43 Z M 340.27 31.43 L 357.42 31.43 Q 357.28 26.18 355.18 23.38 A 6.824 6.824 0 0 0 350.227 20.635 A 9.981 9.981 0 0 0 349.16 20.58 A 8.504 8.504 0 0 0 346.022 21.141 A 7.736 7.736 0 0 0 343 23.31 Q 341.2 25.374 340.561 28.959 A 22.354 22.354 0 0 0 340.27 31.43 Z" vector-effect="non-scaling-stroke"/>
    </g>
</svg>