<svg width="524.07" height="68.941" viewBox="0 0 524.07 68.941" xmlns="http://www.w3.org/2000/svg">
    <g id="svgGroup" stroke-linecap="round" fill-rule="evenodd" font-size="9pt" stroke="#000000" stroke-width=".25mm" fill="#ffffff" style="stroke:#000000;stroke-width:.25mm;fill:#ffffff">
        <path d="M 279.81 13.59 L 279.81 32.31 L 302.31 32.31 L 302.31 40.14 L 279.81 40.14 L 279.81 59.85 L 307.26 59.85 L 307.26 67.77 L 269.37 67.77 L 269.37 5.67 L 306.72 5.67 L 305.55 13.59 L 279.81 13.59 Z M 61.29 20.25 L 61.29 53.46 A 16.276 16.276 0 0 0 61.418 55.58 Q 61.752 58.112 62.955 59.445 A 5.204 5.204 0 0 0 65.26 60.898 Q 66.116 61.177 67.16 61.257 A 11.447 11.447 0 0 0 68.04 61.29 A 11.321 11.321 0 0 0 73.347 59.944 A 13.977 13.977 0 0 0 74.295 59.4 Q 77.31 57.51 79.11 54.63 L 79.11 20.25 L 89.19 20.25 L 89.19 67.77 L 80.46 67.77 L 79.83 61.65 Q 77.31 65.16 73.26 67.05 Q 69.21 68.94 64.89 68.94 A 20.14 20.14 0 0 1 60.952 68.58 Q 58.688 68.128 56.95 67.109 A 10.137 10.137 0 0 1 54.63 65.25 A 11.978 11.978 0 0 1 51.987 60.524 Q 51.21 57.98 51.21 54.72 L 51.21 20.25 L 61.29 20.25 Z M 524.07 20.25 L 522.36 37.8 L 515.16 37.8 L 515.16 28.08 A 11.612 11.612 0 0 0 507.026 31.571 A 15.455 15.455 0 0 0 506.565 32.04 A 20.877 20.877 0 0 0 503.66 36.029 Q 501.975 38.981 500.76 42.93 L 500.76 60.57 L 510.3 60.57 L 510.3 67.77 L 483.66 67.77 L 483.66 60.57 L 490.68 60.57 L 490.68 27.45 L 483.66 27.45 L 483.66 20.25 L 498.33 20.25 L 500.13 31.23 Q 502.92 25.11 506.925 22.095 A 14.762 14.762 0 0 1 513.305 19.382 A 20.214 20.214 0 0 1 516.87 19.08 Q 520.56 19.08 524.07 20.25 Z M 403.11 0 L 413.19 1.17 L 413.19 67.77 L 404.28 67.77 L 403.56 61.92 A 16.49 16.49 0 0 1 399.832 65.857 A 15.217 15.217 0 0 1 397.8 67.14 A 15.792 15.792 0 0 1 391.01 68.924 A 18.595 18.595 0 0 1 390.24 68.94 Q 381.33 68.94 376.83 62.28 A 23.659 23.659 0 0 1 373.754 55.505 Q 372.33 50.541 372.33 44.01 A 39.518 39.518 0 0 1 372.895 37.176 A 30.192 30.192 0 0 1 374.625 31.05 A 23.2 23.2 0 0 1 377.302 26.138 A 18.486 18.486 0 0 1 381.15 22.185 A 15.815 15.815 0 0 1 389.898 19.028 A 19.909 19.909 0 0 1 391.14 18.99 A 16.59 16.59 0 0 1 397.401 20.137 A 15.312 15.312 0 0 1 403.11 24.21 L 403.11 0 Z M 342.09 1.17 L 342.09 54.81 Q 342.09 60.412 348.303 60.81 A 15.447 15.447 0 0 0 349.29 60.84 A 17.97 17.97 0 0 0 353.692 60.269 A 23.579 23.579 0 0 0 356.85 59.22 L 359.37 66.24 Q 354.42 68.94 347.13 68.94 A 20.344 20.344 0 0 1 342.609 68.467 Q 339.325 67.719 336.958 65.788 A 12.576 12.576 0 0 1 336.015 64.935 Q 332.01 60.93 332.01 53.91 L 332.01 8.55 L 317.7 8.55 L 317.7 1.17 L 342.09 1.17 Z M 193.05 56.97 L 197.37 63.09 A 23.521 23.521 0 0 1 191.186 66.792 A 27.653 27.653 0 0 1 189.54 67.41 Q 185.04 68.94 180.09 68.94 A 27.98 27.98 0 0 1 173.034 68.1 A 19.389 19.389 0 0 1 163.17 62.145 Q 157.211 55.43 157.141 44.276 A 42.353 42.353 0 0 1 157.14 44.01 A 33.35 33.35 0 0 1 157.966 36.453 A 27.743 27.743 0 0 1 159.75 31.185 A 21.404 21.404 0 0 1 164.314 24.623 A 20.164 20.164 0 0 1 167.31 22.23 A 19.872 19.872 0 0 1 176.423 19.104 A 24.935 24.935 0 0 1 178.83 18.99 A 22.673 22.673 0 0 1 185.553 19.939 A 17.718 17.718 0 0 1 193.815 25.335 A 21.24 21.24 0 0 1 198.214 33.688 Q 199.101 36.849 199.296 40.602 A 41.571 41.571 0 0 1 199.35 42.75 Q 199.35 44.693 199.21 46.17 A 20.018 20.018 0 0 1 199.08 47.25 L 167.58 47.25 A 23.342 23.342 0 0 0 168.164 51.243 Q 169.141 55.263 171.585 57.645 A 12.089 12.089 0 0 0 179.534 61.079 A 16.053 16.053 0 0 0 180.54 61.11 Q 183.87 61.11 186.885 60.075 A 24.766 24.766 0 0 0 190.32 58.583 A 31.952 31.952 0 0 0 193.05 56.97 Z M 463.05 56.97 L 467.37 63.09 A 23.521 23.521 0 0 1 461.186 66.792 A 27.653 27.653 0 0 1 459.54 67.41 Q 455.04 68.94 450.09 68.94 A 27.98 27.98 0 0 1 443.034 68.1 A 19.389 19.389 0 0 1 433.17 62.145 Q 427.211 55.43 427.141 44.276 A 42.353 42.353 0 0 1 427.14 44.01 A 33.35 33.35 0 0 1 427.966 36.453 A 27.743 27.743 0 0 1 429.75 31.185 A 21.404 21.404 0 0 1 434.314 24.623 A 20.164 20.164 0 0 1 437.31 22.23 A 19.872 19.872 0 0 1 446.423 19.104 A 24.935 24.935 0 0 1 448.83 18.99 A 22.673 22.673 0 0 1 455.553 19.939 A 17.718 17.718 0 0 1 463.815 25.335 A 21.24 21.24 0 0 1 468.214 33.688 Q 469.101 36.849 469.296 40.602 A 41.571 41.571 0 0 1 469.35 42.75 Q 469.35 44.693 469.21 46.17 A 20.018 20.018 0 0 1 469.08 47.25 L 437.58 47.25 A 23.342 23.342 0 0 0 438.164 51.243 Q 439.141 55.263 441.585 57.645 A 12.089 12.089 0 0 0 449.534 61.079 A 16.053 16.053 0 0 0 450.54 61.11 Q 453.87 61.11 456.885 60.075 A 24.766 24.766 0 0 0 460.32 58.583 A 31.952 31.952 0 0 0 463.05 56.97 Z M 0 67.77 L 0 5.67 L 10.35 5.67 L 10.35 59.04 L 38.25 59.04 L 37.08 67.77 L 0 67.77 Z M 115.56 0 L 115.56 67.77 L 105.48 67.77 L 105.48 1.17 L 115.56 0 Z M 147.06 20.25 L 127.89 41.49 L 149.04 67.77 L 136.71 67.77 L 116.28 41.76 L 135.36 20.25 L 147.06 20.25 Z M 403.11 54.45 L 403.11 32.04 A 14.188 14.188 0 0 0 400.373 29.044 A 10.276 10.276 0 0 0 393.75 26.73 Q 388.744 26.73 386.014 30.662 A 11.44 11.44 0 0 0 385.785 31.005 A 14.146 14.146 0 0 0 384.222 34.47 Q 383.158 37.901 383.052 42.888 A 52.802 52.802 0 0 0 383.04 44.01 A 45.071 45.071 0 0 0 383.388 49.882 Q 384.896 61.29 392.94 61.29 A 9.979 9.979 0 0 0 399.621 58.685 Q 401.023 57.472 402.285 55.697 A 23.457 23.457 0 0 0 403.11 54.45 Z M 167.49 40.41 L 189.54 40.41 Q 189.422 35.98 188.218 32.907 A 12.02 12.02 0 0 0 186.66 30.06 Q 183.96 26.46 178.92 26.46 A 10.934 10.934 0 0 0 174.885 27.181 A 9.946 9.946 0 0 0 171 29.97 A 12.208 12.208 0 0 0 168.883 33.54 Q 167.75 36.404 167.49 40.41 Z M 437.49 40.41 L 459.54 40.41 Q 459.422 35.98 458.218 32.907 A 12.02 12.02 0 0 0 456.66 30.06 Q 453.96 26.46 448.92 26.46 A 10.934 10.934 0 0 0 444.885 27.181 A 9.946 9.946 0 0 0 441 29.97 A 12.208 12.208 0 0 0 438.883 33.54 Q 437.75 36.404 437.49 40.41 Z" vector-effect="non-scaling-stroke"/>
    </g>
</svg>