<svg width="291.15" height="38.301" viewBox="0 0 291.15 38.301" xmlns="http://www.w3.org/2000/svg"><g id="svgGroup" stroke-linecap="round" fill-rule="evenodd" font-size="9pt" stroke="#000000" stroke-width=".25mm" fill="#ffffff" style="stroke:#000000;stroke-width:.25mm;fill:#ffffff"><path d="M 155.45 7.55 L 155.45 17.95 L 167.95 17.95 L 167.95 22.3 L 155.45 22.3 L 155.45 33.25 L 170.7 33.25 L 170.7 37.65 L 149.65 37.65 L 149.65 3.15 L 170.4 3.15 L 169.75 7.55 L 155.45 7.55 Z M 34.05 11.25 L 34.05 29.7 Q 34.05 31.846 34.855 32.882 A 2.54 2.54 0 0 0 34.975 33.025 A 2.891 2.891 0 0 0 36.256 33.832 Q 36.731 33.987 37.311 34.032 A 6.36 6.36 0 0 0 37.8 34.05 A 6.289 6.289 0 0 0 40.749 33.302 A 7.765 7.765 0 0 0 41.275 33 Q 42.95 31.95 43.95 30.35 L 43.95 11.25 L 49.55 11.25 L 49.55 37.65 L 44.7 37.65 L 44.35 34.25 Q 42.95 36.2 40.7 37.25 Q 38.45 38.3 36.05 38.3 Q 32.25 38.3 30.35 36.25 Q 28.705 34.475 28.484 31.387 A 13.862 13.862 0 0 1 28.45 30.4 L 28.45 11.25 L 34.05 11.25 Z M 291.15 11.25 L 290.2 21 L 286.2 21 L 286.2 15.6 A 6.451 6.451 0 0 0 281.681 17.539 A 8.586 8.586 0 0 0 281.425 17.8 A 11.598 11.598 0 0 0 279.811 20.016 Q 278.875 21.656 278.2 23.85 L 278.2 33.65 L 283.5 33.65 L 283.5 37.65 L 268.7 37.65 L 268.7 33.65 L 272.6 33.65 L 272.6 15.25 L 268.7 15.25 L 268.7 11.25 L 276.85 11.25 L 277.85 17.35 Q 279.4 13.95 281.625 12.275 A 8.201 8.201 0 0 1 285.169 10.768 A 11.23 11.23 0 0 1 287.15 10.6 Q 289.2 10.6 291.15 11.25 Z M 223.95 0 L 229.55 0.65 L 229.55 37.65 L 224.6 37.65 L 224.2 34.4 Q 222.9 36.3 221 37.3 Q 219.1 38.3 216.8 38.3 A 10.491 10.491 0 0 1 213.686 37.863 A 7.956 7.956 0 0 1 209.35 34.6 A 13.144 13.144 0 0 1 207.641 30.836 Q 206.85 28.078 206.85 24.45 Q 206.85 20.4 208.125 17.25 Q 209.4 14.1 211.75 12.325 A 8.786 8.786 0 0 1 216.61 10.571 A 11.06 11.06 0 0 1 217.3 10.55 Q 221.35 10.55 223.95 13.45 L 223.95 0 Z M 190.05 0.65 L 190.05 30.45 Q 190.05 33.8 194.05 33.8 A 9.984 9.984 0 0 0 196.496 33.483 A 13.1 13.1 0 0 0 198.25 32.9 L 199.65 36.8 Q 197.158 38.159 193.598 38.287 A 20.908 20.908 0 0 1 192.85 38.3 Q 189.346 38.3 187.199 36.549 A 6.987 6.987 0 0 1 186.675 36.075 A 7.357 7.357 0 0 1 184.716 32.446 A 11.056 11.056 0 0 1 184.45 29.95 L 184.45 4.75 L 176.5 4.75 L 176.5 0.65 L 190.05 0.65 Z M 107.25 31.65 L 109.65 35.05 A 13.067 13.067 0 0 1 106.215 37.107 A 15.363 15.363 0 0 1 105.3 37.45 Q 102.8 38.3 100.05 38.3 A 15.545 15.545 0 0 1 96.13 37.833 A 10.772 10.772 0 0 1 90.65 34.525 A 12.853 12.853 0 0 1 87.774 28.83 Q 87.3 26.819 87.3 24.45 A 18.528 18.528 0 0 1 87.759 20.251 A 15.413 15.413 0 0 1 88.75 17.325 A 11.891 11.891 0 0 1 91.285 13.679 A 11.202 11.202 0 0 1 92.95 12.35 A 11.04 11.04 0 0 1 98.013 10.613 A 13.853 13.853 0 0 1 99.35 10.55 A 12.596 12.596 0 0 1 103.085 11.077 A 9.843 9.843 0 0 1 107.675 14.075 Q 110.75 17.6 110.75 23.75 Q 110.75 25.25 110.6 26.25 L 93.1 26.25 A 12.968 12.968 0 0 0 93.425 28.468 Q 93.721 29.69 94.262 30.639 A 6.219 6.219 0 0 0 95.325 32.025 A 6.716 6.716 0 0 0 99.741 33.933 A 8.918 8.918 0 0 0 100.3 33.95 Q 102.15 33.95 103.825 33.375 A 13.759 13.759 0 0 0 105.733 32.546 A 17.751 17.751 0 0 0 107.25 31.65 Z M 257.25 31.65 L 259.65 35.05 A 13.067 13.067 0 0 1 256.215 37.107 A 15.363 15.363 0 0 1 255.3 37.45 Q 252.8 38.3 250.05 38.3 A 15.545 15.545 0 0 1 246.13 37.833 A 10.772 10.772 0 0 1 240.65 34.525 A 12.853 12.853 0 0 1 237.774 28.83 Q 237.3 26.819 237.3 24.45 A 18.528 18.528 0 0 1 237.759 20.251 A 15.413 15.413 0 0 1 238.75 17.325 A 11.891 11.891 0 0 1 241.285 13.679 A 11.202 11.202 0 0 1 242.95 12.35 A 11.04 11.04 0 0 1 248.013 10.613 A 13.853 13.853 0 0 1 249.35 10.55 A 12.596 12.596 0 0 1 253.085 11.077 A 9.843 9.843 0 0 1 257.675 14.075 Q 260.75 17.6 260.75 23.75 Q 260.75 25.25 260.6 26.25 L 243.1 26.25 A 12.968 12.968 0 0 0 243.425 28.468 Q 243.721 29.69 244.262 30.639 A 6.219 6.219 0 0 0 245.325 32.025 A 6.716 6.716 0 0 0 249.741 33.933 A 8.918 8.918 0 0 0 250.3 33.95 Q 252.15 33.95 253.825 33.375 A 13.759 13.759 0 0 0 255.733 32.546 A 17.751 17.751 0 0 0 257.25 31.65 Z M 0 37.65 L 0 3.15 L 5.75 3.15 L 5.75 32.8 L 21.25 32.8 L 20.6 37.65 L 0 37.65 Z M 64.2 0 L 64.2 37.65 L 58.6 37.65 L 58.6 0.65 L 64.2 0 Z M 81.7 11.25 L 71.05 23.05 L 82.8 37.65 L 75.95 37.65 L 64.6 23.2 L 75.2 11.25 L 81.7 11.25 Z M 223.95 30.25 L 223.95 17.8 A 7.882 7.882 0 0 0 222.43 16.136 A 5.709 5.709 0 0 0 218.75 14.85 Q 215.969 14.85 214.452 17.034 A 6.356 6.356 0 0 0 214.325 17.225 A 7.859 7.859 0 0 0 213.457 19.15 Q 212.865 21.056 212.807 23.826 A 29.335 29.335 0 0 0 212.8 24.45 A 25.039 25.039 0 0 0 212.993 27.712 Q 213.831 34.05 218.3 34.05 Q 221.6 34.05 223.95 30.25 Z M 93.05 22.45 L 105.3 22.45 A 15.685 15.685 0 0 0 105.101 20.277 Q 104.731 18.075 103.7 16.7 A 4.874 4.874 0 0 0 100.162 14.74 A 7.129 7.129 0 0 0 99.4 14.7 A 6.074 6.074 0 0 0 97.158 15.1 A 5.526 5.526 0 0 0 95 16.65 A 6.782 6.782 0 0 0 93.824 18.633 Q 93.195 20.224 93.05 22.45 Z M 243.05 22.45 L 255.3 22.45 A 15.685 15.685 0 0 0 255.101 20.277 Q 254.731 18.075 253.7 16.7 A 4.874 4.874 0 0 0 250.162 14.74 A 7.129 7.129 0 0 0 249.4 14.7 A 6.074 6.074 0 0 0 247.158 15.1 A 5.526 5.526 0 0 0 245 16.65 A 6.782 6.782 0 0 0 243.824 18.633 Q 243.195 20.224 243.05 22.45 Z" vector-effect="non-scaling-stroke"/></g></svg>