<svg width="465.84" height="61.281" viewBox="0 0 465.84 61.281" xmlns="http://www.w3.org/2000/svg"><g id="svgGroup" stroke-linecap="round" fill-rule="evenodd" font-size="9pt" stroke="#000000" stroke-width=".4mm" fill="#ffffff" style="stroke:#000000;stroke-width:.4mm;fill:#ffffff"><path d="M 248.72 12.08 L 248.72 28.72 L 268.72 28.72 L 268.72 35.68 L 248.72 35.68 L 248.72 53.2 L 273.12 53.2 L 273.12 60.24 L 239.44 60.24 L 239.44 5.04 L 272.64 5.04 L 271.6 12.08 L 248.72 12.08 Z M 54.48 18 L 54.48 47.52 A 14.468 14.468 0 0 0 54.594 49.404 Q 54.863 51.446 55.768 52.611 A 4.063 4.063 0 0 0 55.96 52.84 A 4.626 4.626 0 0 0 58.009 54.132 Q 58.77 54.379 59.698 54.451 A 10.175 10.175 0 0 0 60.48 54.48 A 10.063 10.063 0 0 0 65.198 53.284 A 12.424 12.424 0 0 0 66.04 52.8 Q 68.72 51.12 70.32 48.56 L 70.32 18 L 79.28 18 L 79.28 60.24 L 71.52 60.24 L 70.96 54.8 Q 68.72 57.92 65.12 59.6 Q 61.52 61.28 57.68 61.28 Q 53.397 61.28 50.622 59.652 A 9.011 9.011 0 0 1 48.56 58 A 10.647 10.647 0 0 1 46.21 53.799 Q 45.714 52.174 45.575 50.22 A 22.179 22.179 0 0 1 45.52 48.64 L 45.52 18 L 54.48 18 Z M 465.84 18 L 464.32 33.6 L 457.92 33.6 L 457.92 24.96 A 10.322 10.322 0 0 0 450.69 28.063 A 13.738 13.738 0 0 0 450.28 28.48 Q 447.617 31.308 445.845 36.028 A 37.225 37.225 0 0 0 445.12 38.16 L 445.12 53.84 L 453.6 53.84 L 453.6 60.24 L 429.92 60.24 L 429.92 53.84 L 436.16 53.84 L 436.16 24.4 L 429.92 24.4 L 429.92 18 L 442.96 18 L 444.56 27.76 Q 446.556 23.383 449.251 20.792 A 14.749 14.749 0 0 1 450.6 19.64 A 13.121 13.121 0 0 1 456.271 17.228 A 17.968 17.968 0 0 1 459.44 16.96 Q 462.72 16.96 465.84 18 Z M 358.32 0 L 367.28 1.04 L 367.28 60.24 L 359.36 60.24 L 358.72 55.04 A 14.657 14.657 0 0 1 355.406 58.539 A 13.526 13.526 0 0 1 353.6 59.68 A 14.037 14.037 0 0 1 347.564 61.266 A 16.529 16.529 0 0 1 346.88 61.28 A 16.786 16.786 0 0 1 341.898 60.58 A 12.73 12.73 0 0 1 334.96 55.36 A 21.03 21.03 0 0 1 332.226 49.338 Q 331.435 46.58 331.138 43.278 A 46.513 46.513 0 0 1 330.96 39.12 Q 330.96 32.64 333 27.6 A 20.622 20.622 0 0 1 335.38 23.234 A 16.432 16.432 0 0 1 338.8 19.72 Q 342.56 16.88 347.68 16.88 A 14.747 14.747 0 0 1 353.245 17.9 A 13.611 13.611 0 0 1 358.32 21.52 L 358.32 0 Z M 304.08 1.04 L 304.08 48.72 Q 304.08 53.699 309.603 54.053 A 13.731 13.731 0 0 0 310.48 54.08 Q 313.68 54.08 317.2 52.64 L 319.44 58.88 Q 315.453 61.055 309.757 61.259 A 33.452 33.452 0 0 1 308.56 61.28 Q 302.24 61.28 298.68 57.72 A 11.771 11.771 0 0 1 295.545 51.914 A 17.689 17.689 0 0 1 295.12 47.92 L 295.12 7.6 L 282.4 7.6 L 282.4 1.04 L 304.08 1.04 Z M 171.6 50.64 L 175.44 56.08 A 20.908 20.908 0 0 1 169.943 59.371 A 24.581 24.581 0 0 1 168.48 59.92 Q 164.48 61.28 160.08 61.28 A 24.871 24.871 0 0 1 153.808 60.533 A 17.235 17.235 0 0 1 145.04 55.24 A 20.565 20.565 0 0 1 140.438 46.129 Q 139.704 43.01 139.681 39.356 A 37.642 37.642 0 0 1 139.68 39.12 A 29.644 29.644 0 0 1 140.414 32.402 A 24.661 24.661 0 0 1 142 27.72 A 19.026 19.026 0 0 1 146.056 21.887 A 17.923 17.923 0 0 1 148.72 19.76 A 17.664 17.664 0 0 1 156.821 16.981 A 22.164 22.164 0 0 1 158.96 16.88 A 20.154 20.154 0 0 1 164.936 17.723 A 15.749 15.749 0 0 1 172.28 22.52 A 18.88 18.88 0 0 1 176.19 29.945 Q 177.2 33.541 177.2 38 A 39.867 39.867 0 0 1 177.169 39.622 Q 177.138 40.383 177.076 41.04 A 17.793 17.793 0 0 1 176.96 42 L 148.96 42 A 20.748 20.748 0 0 0 149.48 45.549 Q 150.348 49.123 152.52 51.24 A 10.746 10.746 0 0 0 159.585 54.292 A 14.269 14.269 0 0 0 160.48 54.32 Q 163.44 54.32 166.12 53.4 A 22.014 22.014 0 0 0 169.173 52.074 A 28.402 28.402 0 0 0 171.6 50.64 Z M 411.6 50.64 L 415.44 56.08 A 20.908 20.908 0 0 1 409.943 59.371 A 24.581 24.581 0 0 1 408.48 59.92 Q 404.48 61.28 400.08 61.28 A 24.871 24.871 0 0 1 393.808 60.533 A 17.235 17.235 0 0 1 385.04 55.24 A 20.565 20.565 0 0 1 380.438 46.129 Q 379.704 43.01 379.681 39.356 A 37.642 37.642 0 0 1 379.68 39.12 A 29.644 29.644 0 0 1 380.414 32.402 A 24.661 24.661 0 0 1 382 27.72 A 19.026 19.026 0 0 1 386.056 21.887 A 17.923 17.923 0 0 1 388.72 19.76 A 17.664 17.664 0 0 1 396.821 16.981 A 22.164 22.164 0 0 1 398.96 16.88 A 20.154 20.154 0 0 1 404.936 17.723 A 15.749 15.749 0 0 1 412.28 22.52 A 18.88 18.88 0 0 1 416.19 29.945 Q 417.2 33.541 417.2 38 A 39.867 39.867 0 0 1 417.169 39.622 Q 417.138 40.383 417.076 41.04 A 17.793 17.793 0 0 1 416.96 42 L 388.96 42 A 20.748 20.748 0 0 0 389.48 45.549 Q 390.347 49.123 392.52 51.24 A 10.746 10.746 0 0 0 399.585 54.292 A 14.269 14.269 0 0 0 400.48 54.32 Q 403.44 54.32 406.12 53.4 A 22.014 22.014 0 0 0 409.173 52.074 A 28.402 28.402 0 0 0 411.6 50.64 Z M 0 60.24 L 0 5.04 L 9.2 5.04 L 9.2 52.48 L 34 52.48 L 32.96 60.24 L 0 60.24 Z M 102.72 0 L 102.72 60.24 L 93.76 60.24 L 93.76 1.04 L 102.72 0 Z M 130.72 18 L 113.68 36.88 L 132.48 60.24 L 121.52 60.24 L 103.36 37.12 L 120.32 18 L 130.72 18 Z M 358.32 48.4 L 358.32 28.48 Q 355.04 23.76 350 23.76 Q 345.36 23.76 342.92 27.56 A 12.574 12.574 0 0 0 341.531 30.64 Q 340.585 33.69 340.49 38.122 A 46.935 46.935 0 0 0 340.48 39.12 Q 340.48 48.908 344.053 52.459 A 7.1 7.1 0 0 0 349.28 54.48 A 8.87 8.87 0 0 0 355.219 52.164 Q 356.881 50.728 358.32 48.4 Z M 148.88 35.92 L 168.48 35.92 A 25.096 25.096 0 0 0 168.161 32.443 Q 167.57 28.92 165.92 26.72 A 7.799 7.799 0 0 0 160.259 23.583 A 11.407 11.407 0 0 0 159.04 23.52 A 9.719 9.719 0 0 0 155.454 24.161 A 8.841 8.841 0 0 0 152 26.64 Q 149.943 28.999 149.213 33.096 A 25.548 25.548 0 0 0 148.88 35.92 Z M 388.88 35.92 L 408.48 35.92 A 25.096 25.096 0 0 0 408.161 32.443 Q 407.57 28.92 405.92 26.72 A 7.799 7.799 0 0 0 400.259 23.583 A 11.407 11.407 0 0 0 399.04 23.52 A 9.719 9.719 0 0 0 395.454 24.161 A 8.841 8.841 0 0 0 392 26.64 Q 389.943 28.999 389.213 33.096 A 25.548 25.548 0 0 0 388.88 35.92 Z" vector-effect="non-scaling-stroke"/></g></svg>