<svg width="591.18125px" height="139.39999999999998px" xmlns="http://www.w3.org/2000/svg" viewBox="-45.59062499999999 5.300000000000011 591.18125 139.39999999999998" style="background: rgba(0, 0, 0, 0);" preserveAspectRatio="xMidYMid">
  <defs>
    <linearGradient id="editing-gradient-gradient" x1="0.6124755271719324" x2="0.38752447282806757" y1="0.012814967607382377" y2="0.9871850323926177" gradientUnits="objectBoundingBox">
      <stop offset="0" stop-color="#ffffff"></stop>
      <stop offset="1" stop-color="#ffffff"></stop>
    </linearGradient>
  </defs>
  <g><g transform="translate(37.514981269836426, 100.34000205993652)">
  <path d="M9.38 0L9.38-45.92L15.12-45.92L15.12-4.97L37.87-4.97L37.87 0L9.38 0ZM77.35-34.02L77.35 0L72.66 0L72.17-5.95L71.89-5.95L71.89-5.95Q69.30-2.94 66.26-1.05L66.26-1.05L66.26-1.05Q63.21 0.84 59.22 0.84L59.22 0.84L59.22 0.84Q53.06 0.84 50.23-2.63L50.23-2.63L50.23-2.63Q47.39-6.09 47.39-12.88L47.39-12.88L47.39-34.02L53.20-34.02L53.20-13.65L53.20-13.65Q53.20-8.82 54.99-6.48L54.99-6.48L54.99-6.48Q56.77-4.13 61.04-4.13L61.04-4.13L61.04-4.13Q63.98-4.13 66.36-5.64L66.36-5.64L66.36-5.64Q68.74-7.14 71.61-10.43L71.61-10.43L71.61-34.02L77.35-34.02ZM91.42 0L91.42-49.84L97.16-49.84L97.16-16.10L97.44-16.10L115.78-34.02L122.36-34.02L108.78-20.51L124.18 0L117.74 0L105.21-17.01L97.16-9.24L97.16 0L91.42 0ZM130.83-16.94L130.83-16.94L130.83-16.94Q130.83-21.14 132.30-24.47L132.30-24.47L132.30-24.47Q133.77-27.79 136.19-30.10L136.19-30.10L136.19-30.10Q138.60-32.41 141.72-33.64L141.72-33.64L141.72-33.64Q144.83-34.86 148.12-34.86L148.12-34.86L148.12-34.86Q151.76-34.86 154.63-33.71L154.63-33.71L154.63-33.71Q157.50-32.55 159.50-30.45L159.50-30.45L159.50-30.45Q161.49-28.35 162.54-25.41L162.54-25.41L162.54-25.41Q163.59-22.47 163.59-18.90L163.59-18.90L163.59-18.90Q163.59-17.99 163.56-17.12L163.56-17.12L163.56-17.12Q163.52-16.24 163.38-15.61L163.38-15.61L136.78-15.61L136.78-15.61Q136.85-12.88 137.87-10.71L137.87-10.71L137.87-10.71Q138.88-8.54 140.60-7.00L140.60-7.00L140.60-7.00Q142.31-5.46 144.66-4.62L144.66-4.62L144.66-4.62Q147.00-3.78 149.80-3.78L149.80-3.78L149.80-3.78Q152.81-3.78 155.30-4.62L155.30-4.62L155.30-4.62Q157.78-5.46 160.16-6.93L160.16-6.93L162.19-3.15L162.19-3.15Q159.67-1.54 156.45-0.35L156.45-0.35L156.45-0.35Q153.23 0.84 149.10 0.84L149.10 0.84L149.10 0.84Q145.32 0.84 142.00-0.39L142.00-0.39L142.00-0.39Q138.67-1.61 136.19-3.89L136.19-3.89L136.19-3.89Q133.70-6.16 132.27-9.45L132.27-9.45L132.27-9.45Q130.83-12.74 130.83-16.94ZM136.71-19.74L158.27-19.74L158.27-19.74Q158.27-24.85 155.61-27.58L155.61-27.58L155.61-27.58Q152.95-30.31 148.19-30.31L148.19-30.31L148.19-30.31Q146.09-30.31 144.17-29.61L144.17-29.61L144.17-29.61Q142.24-28.91 140.70-27.55L140.70-27.55L140.70-27.55Q139.16-26.18 138.11-24.22L138.11-24.22L138.11-24.22Q137.06-22.26 136.71-19.74L136.71-19.74ZM218.05 0L218.05-45.92L246.40-45.92L246.40-41.02L223.93-41.02L223.93-26.60L242.90-26.60L242.90-21.63L223.93-21.63L223.93-4.97L247.10-4.97L247.10 0L218.05 0ZM257.67-45.15L257.67-49.84L275.03-49.84L275.03-10.99L275.03-10.99Q275.03-7.21 276.82-5.57L276.82-5.57L276.82-5.57Q278.60-3.92 281.68-3.92L281.68-3.92L281.68-3.92Q284.48-3.92 288.12-5.53L288.12-5.53L289.59-1.19L289.59-1.19Q287.28-0.35 285.25 0.25L285.25 0.25L285.25 0.25Q283.22 0.84 280.42 0.84L280.42 0.84L280.42 0.84Q274.96 0.84 272.13-2.24L272.13-2.24L272.13-2.24Q269.29-5.32 269.29-11.41L269.29-11.41L269.29-45.15L257.67-45.15ZM298.20-16.94L298.20-16.94L298.20-16.94Q298.20-21.07 299.50-24.40L299.50-24.40L299.50-24.40Q300.79-27.72 302.93-30.03L302.93-30.03L302.93-30.03Q305.06-32.34 307.86-33.60L307.86-33.60L307.86-33.60Q310.66-34.86 313.67-34.86L313.67-34.86L313.67-34.86Q316.82-34.86 319.20-33.67L319.20-33.67L319.20-33.67Q321.58-32.48 323.96-30.45L323.96-30.45L323.75-36.75L323.75-49.84L329.49-49.84L329.49 0L324.73 0L324.24-4.48L324.03-4.48L324.03-4.48Q321.93-2.31 319.03-0.74L319.03-0.74L319.03-0.74Q316.12 0.84 312.97 0.84L312.97 0.84L312.97 0.84Q309.61 0.84 306.92-0.35L306.92-0.35L306.92-0.35Q304.22-1.54 302.26-3.82L302.26-3.82L302.26-3.82Q300.30-6.09 299.25-9.38L299.25-9.38L299.25-9.38Q298.20-12.67 298.20-16.94ZM304.15-17.01L304.15-17.01L304.15-17.01Q304.15-10.85 306.78-7.42L306.78-7.42L306.78-7.42Q309.40-3.99 314.16-3.99L314.16-3.99L314.16-3.99Q319.20-3.99 323.75-9.10L323.75-9.10L323.75-26.04L323.75-26.04Q321.44-28.21 319.24-29.12L319.24-29.12L319.24-29.12Q317.03-30.03 314.79-30.03L314.79-30.03L314.79-30.03Q312.55-30.03 310.63-29.09L310.63-29.09L310.63-29.09Q308.70-28.14 307.27-26.43L307.27-26.43L307.27-26.43Q305.83-24.71 304.99-22.33L304.99-22.33L304.99-22.33Q304.15-19.95 304.15-17.01ZM340.83-16.94L340.83-16.94L340.83-16.94Q340.83-21.14 342.30-24.47L342.30-24.47L342.30-24.47Q343.77-27.79 346.19-30.10L346.19-30.10L346.19-30.10Q348.60-32.41 351.72-33.64L351.72-33.64L351.72-33.64Q354.83-34.86 358.12-34.86L358.12-34.86L358.12-34.86Q361.76-34.86 364.63-33.71L364.63-33.71L364.63-33.71Q367.50-32.55 369.50-30.45L369.50-30.45L369.50-30.45Q371.49-28.35 372.54-25.41L372.54-25.41L372.54-25.41Q373.59-22.47 373.59-18.90L373.59-18.90L373.59-18.90Q373.59-17.99 373.56-17.12L373.56-17.12L373.56-17.12Q373.52-16.24 373.38-15.61L373.38-15.61L346.78-15.61L346.78-15.61Q346.85-12.88 347.87-10.71L347.87-10.71L347.87-10.71Q348.88-8.54 350.60-7.00L350.60-7.00L350.60-7.00Q352.31-5.46 354.66-4.62L354.66-4.62L354.66-4.62Q357.00-3.78 359.80-3.78L359.80-3.78L359.80-3.78Q362.81-3.78 365.30-4.62L365.30-4.62L365.30-4.62Q367.78-5.46 370.16-6.93L370.16-6.93L372.19-3.15L372.19-3.15Q369.67-1.54 366.45-0.35L366.45-0.35L366.45-0.35Q363.23 0.84 359.10 0.84L359.10 0.84L359.10 0.84Q355.32 0.84 352.00-0.39L352.00-0.39L352.00-0.39Q348.67-1.61 346.19-3.89L346.19-3.89L346.19-3.89Q343.70-6.16 342.27-9.45L342.27-9.45L342.27-9.45Q340.83-12.74 340.83-16.94ZM346.71-19.74L368.27-19.74L368.27-19.74Q368.27-24.85 365.61-27.58L365.61-27.58L365.61-27.58Q362.95-30.31 358.19-30.31L358.19-30.31L358.19-30.31Q356.09-30.31 354.17-29.61L354.17-29.61L354.17-29.61Q352.24-28.91 350.70-27.55L350.70-27.55L350.70-27.55Q349.16-26.18 348.11-24.22L348.11-24.22L348.11-24.22Q347.06-22.26 346.71-19.74L346.71-19.74ZM388.22 0L388.22-34.02L392.98-34.02L393.47-25.97L393.68-25.97L393.68-25.97Q396.34-30.10 400.23-32.48L400.23-32.48L400.23-32.48Q404.11-34.86 408.87-34.86L408.87-34.86L408.87-34.86Q410.76-34.86 412.37-34.55L412.37-34.55L412.37-34.55Q413.98-34.23 415.59-33.46L415.59-33.46L414.26-28.49L414.26-28.49Q412.44-29.12 411.22-29.40L411.22-29.40L411.22-29.40Q409.99-29.68 407.96-29.68L407.96-29.68L407.96-29.68Q404.11-29.68 400.58-27.48L400.58-27.48L400.58-27.48Q397.04-25.27 393.96-19.95L393.96-19.95L393.96 0L388.22 0Z" fill="url(#editing-gradient-gradient)"></path>
  </g></g>
  <style>
    text {
      font-size: 64px;
      font-family: Arial Black;
      dominant-baseline: central;
      text-anchor: middle;
    }
  </style>
</svg>